inDegrees=no
num_controls=7
num_derivatives=13
num_iterations=122
num_multipliers=7
num_parameters=0
num_slacks=7
num_states=26
objective=5.892668
objective_accelerations=0.912724
objective_balance=0.044073
objective_effort=0.285269
objective_height=4.543431
objective_ligament=0.107172
solver_duration=1291.144997
status=Solve_Succeeded
success=true
DataType=double
version=3
OpenSimVersion=4.4-2022-07-23-0e9fedc
endheader
time	/jointset/ground_pelvis/pelvis_tilt/value	/jointset/ground_pelvis/pelvis_tx/value	/jointset/ground_pelvis/pelvis_ty/value	/jointset/hip_l/hip_flexion_l/value	/jointset/hip_l/hip_adduction_l/value	/jointset/hip_l/hip_rotation_l/value	/jointset/back/lumbar_extension/value	/jointset/patellofemoral_l/patellar_flexion_l/value	/jointset/knee_l/knee_flexion_l/value	/jointset/knee_l/knee_adduction_l/value	/jointset/knee_l/knee_rotation_l/value	/jointset/ankle_l/ankle_angle_l/value	/jointset/subtalar_l/subtalar_angle_l/value	/jointset/ground_pelvis/pelvis_tilt/speed	/jointset/ground_pelvis/pelvis_tx/speed	/jointset/ground_pelvis/pelvis_ty/speed	/jointset/hip_l/hip_flexion_l/speed	/jointset/hip_l/hip_adduction_l/speed	/jointset/hip_l/hip_rotation_l/speed	/jointset/back/lumbar_extension/speed	/jointset/patellofemoral_l/patellar_flexion_l/speed	/jointset/knee_l/knee_flexion_l/speed	/jointset/knee_l/knee_adduction_l/speed	/jointset/knee_l/knee_rotation_l/speed	/jointset/ankle_l/ankle_angle_l/speed	/jointset/subtalar_l/subtalar_angle_l/speed	/forceset/tau_hip_flexion_l	/forceset/tau_hip_adduction_l	/forceset/tau_hip_rotation_l	/forceset/tau_knee_flexion_l	/forceset/tau_ankle_angle_l	/forceset/tau_subtalar_angle_l	/forceset/tau_lumbar_extension	lambda_cid13_p0	lambda_cid13_p1	lambda_cid13_p2	lambda_cid13_p3	lambda_cid13_p4	lambda_cid13_p5	lambda_cid14_p0	/jointset/ground_pelvis/pelvis_tilt/accel	/jointset/ground_pelvis/pelvis_tx/accel	/jointset/ground_pelvis/pelvis_ty/accel	/jointset/hip_l/hip_flexion_l/accel	/jointset/hip_l/hip_adduction_l/accel	/jointset/hip_l/hip_rotation_l/accel	/jointset/back/lumbar_extension/accel	/jointset/patellofemoral_l/patellar_flexion_l/accel	/jointset/knee_l/knee_flexion_l/accel	/jointset/knee_l/knee_adduction_l/accel	/jointset/knee_l/knee_rotation_l/accel	/jointset/ankle_l/ankle_angle_l/accel	/jointset/subtalar_l/subtalar_angle_l/accel	gamma_cid13_p0	gamma_cid13_p1	gamma_cid13_p2	gamma_cid13_p3	gamma_cid13_p4	gamma_cid13_p5	gamma_cid14_p0
1.5	-0.3115645045285247	0.009462699073443256	0.7419982142707613	1.109119085034828	-0.4226609322069892	-0.2645839765748182	-0.2257759282971961	0.9629040406008446	0.9629040406009175	0.02318376252960498	-0.1723330721913147	0.2593933127718958	0.07911712514009311	0.4965630143875246	0.1845758256191714	0.648763536952729	-2.469003505240233	0.2289849259323558	-0.5904414947602498	0.3185778648998818	-2.453408075530692	-2.453408075530715	-0.5326610153258677	0.04009877319312731	-0.7203367959618732	-0.1804788656147987	-0.1478911221033085	0.03891698088317026	-0.02225550704010453	-0.2327847080021204	0.001521214807762841	0.04689745965892277	0.1510531654091664	-29.34721090632792	-17.00107364193029	4.398558679143506	-7.418867964643995	-512.2995261171774	-61.57886486855764	-17.75698444144123	0.7328825626614475	0.7409002684262203	-0.7328561441529755	-1.308054955675451	0.3520854945790711	-0.3820239642041026	1.499434060131821	-1.521247424442917	-1.521247424442921	-0.3010789805548654	0.5465945047867536	-0.9421025292632235	-0.02867078239961428	6.22980917678708e-07	4.341164177227235e-06	5.783107775459199e-07	9.406934869066835e-07	3.753161392204126e-07	1.717049264610017e-06	5.946906395449524e-07
1.51	-0.3065622639408333	0.01134523284137205	0.7484478165999392	1.08436559402892	-0.4203550348294151	-0.2705115465337706	-0.2225164876755228	0.9382967479333935	0.9382967479334469	0.0178432103484638	-0.1719096580053389	0.2521435201131282	0.07730931928841236	0.5037997330635676	0.1918948578648574	0.6410091767616498	-2.481343421702476	0.232182830329535	-0.5950061150188612	0.3332666295287694	-2.46770764968376	-2.467707649683784	-0.535388452598079	0.04461304614829007	-0.7295074005441924	-0.1810174311642845	-0.1426569014371215	0.03750815499612441	-0.02123824312598636	-0.2283159142095849	0.002732709028135789	0.0459211614713371	0.1465549880063943	-28.76190597202961	-16.81916338887428	4.52903009844754	-7.310195391395629	-507.4681577556153	-61.71671066367038	-18.93381327872692	0.7062030956018117	0.7222020365772429	-0.8188181820929851	-1.144330551654877	0.3013186028382093	-0.483305830536318	1.447053178363056	-1.333016876152709	-1.333016876152684	-0.248668365985589	0.408402869627644	-0.8870990423229347	-0.0576084115175202	6.324720184784964e-07	4.654895417515284e-06	8.312189928806049e-07	1.005738465524897e-06	3.605633272109727e-07	1.804958928501212e-06	6.170278283142481e-07
1.52	-0.3014902288512773	0.01329991639854535	0.7548154568821044	1.059499229746353	-0.418017623269765	-0.2764826876500763	-0.2191114683047416	0.913556718631319	0.9135567186313743	0.01247736534157405	-0.1714401892540746	0.2448055094846149	0.07549789598717714	0.5105219147606532	0.1990057834680733	0.6323711275502495	-2.491578160570964	0.2352877623487589	-0.5991557262313438	0.3476936147214837	-2.479955402453383	-2.479955402453407	-0.5377195804875543	0.04930968625331633	-0.7379803899107794	-0.1812023555255493	-0.1374226807709655	0.03609932910905635	-0.02022097921162954	-0.2238471204170396	0.003944203248503531	0.04494486328371442	0.1420568106035993	-28.17427463942467	-16.64446811860874	4.668426131357116	-7.24785996393309	-502.6206113624426	-61.88774240721038	-20.12484943749388	0.6299751668700329	0.6992789399321662	-0.9095939482172044	-0.8870194369243147	0.3334910189880002	-0.2990221549783572	1.447078172897164	-1.110883147753815	-1.110883147753812	-0.2218171040076758	0.583067934759436	-0.8025794861168482	0.0420574552445948	6.358050458920977e-07	4.942696271897507e-06	1.087376508815141e-06	1.065754081873876e-06	3.373893301995146e-07	1.862706625812625e-06	6.364802670146846e-07
1.53	-0.2963535737182614	0.01532460178196288	0.7610923983685496	1.034541043891572	-0.4156495996200286	-0.2824940828525049	-0.2155636312600385	0.8887045636359793	0.8887045636360373	0.007090706626028275	-0.1709234863395399	0.2373863850922782	0.07368652420490988	0.5167187122280439	0.2058877243080375	0.6228796615779686	-2.499700699885316	0.2383014155573333	-0.6030542034936743	0.361816609088224	-2.490118950670513	-2.490118950670563	-0.5395537598206612	0.05405021491690785	-0.7457191996912816	-0.1810087051037091	-0.1321925821165455	0.03457168617194686	-0.01931273664472744	-0.2195635337328542	0.00514473869060751	0.04383437703611551	0.1375414181608226	-27.61723674131862	-16.40097009747526	4.790951570782388	-7.092779383244292	-498.0592088789037	-61.96640152309392	-21.32651010887856	0.6008945305705248	0.6763462587883785	-0.9894915315670837	-0.7212082944963901	0.282254266185027	-0.4244979657573045	1.386332298923659	-0.9157260951192852	-0.9157260951232331	-0.1545878011471072	0.422739447353179	-0.7404216328882307	0.01647715549848517	6.325951203328753e-07	5.202946091254789e-06	1.346986406637019e-06	1.120426000811793e-06	3.052678241234124e-07	1.888407233633021e-06	6.528676587669585e-07
1.54	-0.2911576781117933	0.01741684549433218	0.7672703114733048	1.009512365220482	-0.4132520490793337	-0.2885423103183336	-0.2118762798255955	0.8637614460711791	0.8637614460712475	0.0016876322265413	-0.1703587393153355	0.2298936946203613	0.07187878059082928	0.5223700094513094	0.2125174492584268	0.6125654512123242	-2.505676723831896	0.2411931405416313	-0.6065221789118842	0.3755964926694057	-2.498147916344714	-2.49814791634479	-0.5410027172811738	0.05891850818826511	-0.7526936058266377	-0.1804767218880796	-0.1269624834621495	0.03304404323482011	-0.01840449407771172	-0.2152799470486667	0.00634527413270705	0.04272389078848903	0.1330260257180292	-27.05885913409346	-16.16466870750792	4.922574796429023	-6.976251614548531	-493.4962695016973	-62.07829763931912	-22.53386543299537	0.5208751180450194	0.6488357620171827	-1.074142826889915	-0.4577163633698066	0.3091053741327088	-0.2129217861542583	1.378456015785446	-0.6839666391681214	-0.6839666391681349	-0.1447727294887814	0.608620856312564	-0.6496987570876599	0.109724014002425	6.232836845972325e-07	5.424388502847939e-06	1.599337045595683e-06	1.166263400197682e-06	2.674693137827067e-07	1.882891541989617e-06	6.65036842668068e-07
1.55	-0.2859080873221157	0.0195740244439303	0.7733410782318777	0.9844348045910908	-0.4108260785136627	-0.2946237357813359	-0.2080530050610954	0.8387488070977348	0.8387488070977756	-0.003727486775678129	-0.1697451566332507	0.2223351592395738	0.07007825423687117	0.527450038847187	0.218864099987734	0.6014621353276208	-2.509462603135268	0.2439834735341319	-0.6096893841195047	0.3889820989585316	-2.504012240444749	-2.504012240444757	-0.5419624763081441	0.0638100812026644	-0.758884016560228	-0.1795688353785288	-0.1217292409532187	0.03141246091618966	-0.0176263201680368	-0.2111444277378874	0.007460411978651471	0.04150000723507739	0.1284811076562392	-26.5564969168186	-15.86699326974668	5.041767901624403	-6.730647152217272	-489.2512389579825	-62.12525142748002	-23.73791674207414	0.4867545472687136	0.6196879737162336	-1.147251046075437	-0.2832082706798674	0.2605224713570801	-0.3572350584531802	1.307158744672709	-0.4826548916817947	-0.482654891671607	-0.06182749964547006	0.4316023235287806	-0.5839611198461682	0.08912691742277425	6.06942248006149e-07	5.601118031582419e-06	1.843323755864124e-06	1.201921896621451e-06	2.231299072240889e-07	1.841409244442271e-06	6.723459175232709e-07
1.56	-0.2806106586990979	0.0217930915498874	0.7792970468162401	0.9593305482572897	-0.4083728995761625	-0.3007345563304911	-0.2040981650718647	0.8136885269640327	0.8136885269640581	-0.00915025337020723	-0.1690822228611216	0.2147186699737787	0.0682883679376062	0.5319375761194454	0.2248950805302248	0.5896058163702997	-2.511015864713	0.2466348149085767	-0.6124011961426185	0.4019095376155131	-2.507676148395209	-2.507676148395149	-0.542532235748897	0.06878872619807005	-0.7642843828278778	-0.1783487109493247	-0.1164959984443235	0.0297808785975343	-0.01684814625821997	-0.2070089084271073	0.00857554982458953	0.04027612368162666	0.1239361895944249	-26.05427294458622	-15.57563640534596	5.169211312371186	-6.514761447412755	-485.0270064411548	-62.20271609681091	-24.93386287937061	0.4023766933211849	0.5857017246538715	-1.224743441413453	-0.011192818242006	0.2813070505215164	-0.1218431492529527	1.286822489356582	-0.2438834092530145	-0.2438834092530094	-0.06677281224523994	0.6260352525138166	-0.4916898638996381	0.1721715979330747	5.951609565347049e-07	5.807388153696176e-06	2.097726340905012e-06	1.237855177668372e-06	1.855909322768017e-07	1.795536883467915e-06	6.832099780511992e-07
